<?xml version="1.0" encoding="UTF-8"?>
<!-- Generator: Adobe Illustrator 15.0.2, SVG Export Plug-In . SVG Version: 6.00 Build 0)  -->
<!DOCTYPE svg PUBLIC "-//W3C//DTD SVG 1.1//EN" "http://www.w3.org/Graphics/SVG/1.1/DTD/svg11.dtd">
<svg version="1.1" id="Layer_1" xmlns="http://www.w3.org/2000/svg" xmlns:xlink="http://www.w3.org/1999/xlink" x="0px" y="0px" width="512px" height="597.333px" viewBox="0 0 512 597.333" enable-background="new 0 0 512 597.333" xml:space="preserve">
<path d="M455.111,0H56.889C25.458,0,0,25.458,0,56.889v398.223C0,486.542,25.458,512,56.889,512h113.778L256,597.333L341.333,512  h113.778C486.542,512,512,486.542,512,455.111V56.889C512,25.458,486.542,0,455.111,0z M284.444,455.111h-56.889v-56.889h56.889  V455.111z M343.181,234.806l-25.458,26.174c-20.473,20.479-33.278,37.688-33.278,80.354h-56.889v-14.222  c0-31.431,12.799-59.875,33.277-80.5l35.417-35.841c10.236-10.235,16.639-24.458,16.639-40.104c0-31.431-25.458-56.89-56.889-56.89  s-56.889,25.459-56.889,56.89h-56.889c0-62.861,50.916-113.778,113.777-113.778s113.777,50.917,113.777,113.778  C369.777,195.694,359.681,218.312,343.181,234.806z"/>
</svg>